<?xml version="1.0" encoding="UTF-8" standalone="no"?>
<svg width="129px" height="105px" viewBox="0 0 129 105" version="1.1" xmlns="http://www.w3.org/2000/svg" xmlns:xlink="http://www.w3.org/1999/xlink" xmlns:sketch="http://www.bohemiancoding.com/sketch/ns">
    <!-- Generator: Sketch 3.3.3 (12081) - http://www.bohemiancoding.com/sketch -->
    <title>Shape</title>
    <desc>Created with Sketch.</desc>
    <defs></defs>
    <g id="Page-1" stroke="none" stroke-width="1" fill="none" fill-rule="evenodd" sketch:type="MSPage">
        <path d="M100.875,0.11632787 C89.489262,-0.87979513 79.349403,4.6071639 72.494131,13.286639 L84.909478,38.464517 L68.943621,46.698083 L64.998172,48.768342 C62.82,49.903734 60.991597,50.928837 60.940265,51.048348 C60.888935,51.167861 62.405637,53.097066 64.327372,55.359961 L67.7674,59.425249 L67.82421,59.492959 L79.436246,73.056629 L64.519376,104.43845 C86.211814,87.429018 125.27003,65.491266 128.14617,32.616841 C129.62782,15.681531 117.81031,1.5979759 100.875,0.11632787 L100.875,0.11632787 Z M0.12525364,32.896455 C-1.3563939,15.961145 10.461112,1.8775889 27.396422,0.39594187 C38.782158,-0.60018113 48.922016,4.8867779 55.777288,13.566253 L72.441385,36.20001 L50.851084,52.798331 L73.080741,70.976509 L63.752817,104.72695 C42.060383,87.717525 3.0013931,65.77088 0.12525364,32.896455 L0.12525364,32.896455 Z" id="Shape" fill="#A6D6E6" sketch:type="MSShapeGroup"></path>
    </g>
</svg>