<?xml version="1.0" encoding="UTF-8" standalone="no"?>
<svg width="100px" height="82px" viewBox="0 0 100 82" version="1.1" xmlns="http://www.w3.org/2000/svg" xmlns:xlink="http://www.w3.org/1999/xlink" xmlns:sketch="http://www.bohemiancoding.com/sketch/ns">
    <!-- Generator: Sketch 3.3.3 (12081) - http://www.bohemiancoding.com/sketch -->
    <title>coldheart</title>
    <desc>Created with Sketch.</desc>
    <defs></defs>
    <g id="Page-1" stroke="none" stroke-width="1" fill="none" fill-rule="evenodd" sketch:type="MSPage">
        <g id="coldheart" sketch:type="MSLayerGroup" fill="#A6D6E6">
            <g id="Page-1" sketch:type="MSShapeGroup">
                <path d="M78.1976744,0.0901766434 C69.3715209,-0.682011729 61.5111651,3.57144488 56.1970008,10.2997202 L65.8213008,29.817455 L53.4446674,36.2000643 L50.3861798,37.8049163 C48.6976744,38.6850651 47.2803078,39.4797186 47.2405155,39.5723628 C47.2007248,39.6650085 48.3764628,41.1605163 49.8661798,42.9146984 L52.5328682,46.0660845 L52.576907,46.1185729 L61.5784853,56.6330457 L50.0150202,80.9600388 C66.8308636,67.7744326 97.1085504,50.7684233 99.3381163,25.2843729 C100.486682,12.1562256 91.3258217,1.23874101 78.1976744,0.0901766434 L78.1976744,0.0901766434 L78.1976744,0.0901766434 Z M0.097095845,25.5011279 C-1.05146814,12.3729806 8.10938915,1.45549527 21.2375364,0.306931682 C30.0636884,-0.46525669 37.9240434,3.78819992 43.2382078,10.5164752 L56.1561124,28.0620233 L39.419445,40.9289388 L56.6517372,55.0205496 L49.4207884,81.1836822 C32.6049481,67.9980814 2.32666132,50.9851783 0.097095845,25.5011279 L0.097095845,25.5011279 L0.097095845,25.5011279 Z" id="Shape"></path>
            </g>
        </g>
    </g>
</svg>