<?xml version="1.0" encoding="UTF-8" standalone="no"?>
<svg width="100px" height="53px" viewBox="0 0 100 53" version="1.1" xmlns="http://www.w3.org/2000/svg" xmlns:xlink="http://www.w3.org/1999/xlink" xmlns:sketch="http://www.bohemiancoding.com/sketch/ns">
    <!-- Generator: Sketch 3.3.3 (12081) - http://www.bohemiancoding.com/sketch -->
    <title>rainbow</title>
    <desc>Created with Sketch.</desc>
    <defs></defs>
    <g id="Page-1" stroke="none" stroke-width="1" fill="none" fill-rule="evenodd" sketch:type="MSPage">
        <g id="rainbow" sketch:type="MSLayerGroup">
            <path d="M7.74166667,52.6283333 C7.71333333,51.99 7.69333333,51.35 7.69333333,50.705 C7.69333333,27.3766667 26.6716667,8.39666667 50.0016667,8.39666667 C73.3316667,8.39666667 92.31,27.375 92.31,50.705 C92.31,51.35 92.29,51.99 92.2616667,52.6283333 L99.955,52.6283333 C99.975,51.9883333 100,51.35 100,50.705 C100,23.09 77.615,0.705 50,0.705 C22.385,0.705 0,23.09 0,50.705 C0,51.35 0.025,51.9883333 0.0483333333,52.6283333 L7.74166667,52.6283333 L7.74166667,52.6283333 Z" id="Shape" fill="#E64C3C" sketch:type="MSShapeGroup"></path>
            <path d="M15.4816667,52.6283333 C15.4466667,51.9883333 15.385,51.355 15.385,50.705 C15.385,31.6183333 30.9133333,16.09 50,16.09 C69.0866667,16.09 84.615,31.62 84.615,50.705 C84.615,51.3533333 84.5533333,51.9883333 84.5183333,52.6283333 L92.26,52.6283333 C92.2883333,51.99 92.3083333,51.35 92.3083333,50.705 C92.3083333,27.3766667 73.33,8.39666667 50,8.39666667 C26.67,8.39666667 7.69166667,27.3766667 7.69166667,50.705 C7.69166667,51.35 7.71166667,51.99 7.74,52.6283333 L15.4816667,52.6283333 L15.4816667,52.6283333 Z" id="Shape" fill="#F0C419" sketch:type="MSShapeGroup"></path>
            <path d="M23.175,52.6283333 C23.13,51.99 23.0783333,51.355 23.0783333,50.705 C23.0783333,35.86 35.155,23.7816667 50.0016667,23.7816667 C64.8483333,23.7816667 76.925,35.8583333 76.925,50.705 C76.925,51.3533333 76.8733333,51.99 76.8283333,52.6283333 L84.52,52.6283333 C84.555,51.9883333 84.6166667,51.355 84.6166667,50.705 C84.6166667,31.6183333 69.0883333,16.09 50.0016667,16.09 C30.915,16.09 15.385,31.6183333 15.385,50.705 C15.385,51.3533333 15.4466667,51.9883333 15.4816667,52.6283333 L23.175,52.6283333 L23.175,52.6283333 Z" id="Shape" fill="#71C285" sketch:type="MSShapeGroup"></path>
            <path d="M30.8666667,52.6283333 C30.8033333,51.995 30.77,51.355 30.77,50.705 C30.77,40.1016667 39.3966667,31.475 50,31.475 C60.6033333,31.475 69.23,40.1033333 69.23,50.705 C69.23,51.3533333 69.195,51.995 69.1333333,52.6283333 L76.825,52.6283333 C76.87,51.99 76.9216667,51.355 76.9216667,50.705 C76.9216667,35.86 64.845,23.7816667 49.9983333,23.7816667 C35.1516667,23.7816667 23.075,35.8583333 23.075,50.705 C23.075,51.3533333 23.1266667,51.99 23.1716667,52.6283333 L30.8666667,52.6283333 L30.8666667,52.6283333 Z" id="Shape" fill="#0096E6" sketch:type="MSShapeGroup"></path>
            <path d="M38.635,52.6283333 C38.5283333,52.0016667 38.4616667,51.3616667 38.4616667,50.705 C38.4616667,44.3416667 43.6366667,39.1666667 50,39.1666667 C56.3633333,39.1666667 61.5383333,44.3416667 61.5383333,50.705 C61.5383333,51.3616667 61.47,52.0016667 61.365,52.6283333 L69.1333333,52.6283333 C69.1966667,51.995 69.23,51.355 69.23,50.705 C69.23,40.1016667 60.6033333,31.475 50,31.475 C39.3966667,31.475 30.77,40.1033333 30.77,50.705 C30.77,51.3533333 30.805,51.995 30.8666667,52.6283333 L38.635,52.6283333 L38.635,52.6283333 Z" id="Shape" fill="#546A79" sketch:type="MSShapeGroup"></path>
        </g>
    </g>
</svg>